<?xml version="1.0" encoding="utf-8"?>
<!-- Generator: Adobe Illustrator 24.1.0, SVG Export Plug-In . SVG Version: 6.00 Build 0)  -->
<svg version="1.1" id="Layer_1" xmlns="http://www.w3.org/2000/svg" xmlns:xlink="http://www.w3.org/1999/xlink" x="0px" y="0px"
	 viewBox="0 0 387 463.2" style="enable-background:new 0 0 387 463.2;" xml:space="preserve">
<style type="text/css">
	.st0{fill:none;stroke:#000000;stroke-width:15;stroke-miterlimit:10;}
	.st1{fill:none;}
	.st2{fill:#D40011;stroke:#000000;stroke-width:15;stroke-miterlimit:10;}
	.st3{fill:#FFFFFF;stroke:#000000;stroke-width:10;stroke-miterlimit:10;}
	.st4{fill:none;stroke:#000000;stroke-width:11;stroke-miterlimit:10;}
</style>
<polygon class="st0" points="195,80.1 272.9,215.1 350.8,350 195,350 39.2,350 117.1,215.1 "/>
<g>
	<ellipse class="st1" cx="184.7" cy="269.2" rx="9.9" ry="10.6"/>
	<path d="M194.6,249.1c-13.4,0-24.3,11.6-24.3,25.9s10.9,25.9,24.3,25.9s24.3-11.6,24.3-25.9S208.1,249.1,194.6,249.1z M184.7,279.8
		c-5.5,0-9.9-4.7-9.9-10.6c0-5.8,4.4-10.6,9.9-10.6s9.9,4.7,9.9,10.6C194.6,275.1,190.2,279.8,184.7,279.8z"/>
	<path class="st2" d="M295.1,275c-25.6-28.9-62-47-102.3-47s-76.7,18.1-102.3,47h0.4c25.6,28.9,62,47,102.3,47s76.7-18.1,102.3-47
		H295.1z M194.2,316.2c-21.7,0-39.2-18.7-39.2-41.7s17.6-41.7,39.2-41.7s39.2,18.7,39.2,41.7C233.4,297.6,215.8,316.2,194.2,316.2z"
		/>
	<path class="st3" d="M194.2,232.8c-21.7,0-39.2,18.7-39.2,41.7s17.6,41.7,39.2,41.7s39.2-18.7,39.2-41.7S215.8,232.8,194.2,232.8z
		 M194.6,300.9c-13.4,0-24.3-11.6-24.3-25.9s10.9-25.9,24.3-25.9s24.3,11.6,24.3,25.9S208.1,300.9,194.6,300.9z"/>
</g>
<line class="st4" x1="173" y1="225.5" x2="172.5" y2="185.5"/>
<line class="st4" x1="158.2" y1="225.3" x2="146" y2="191.4"/>
<line class="st4" x1="197" y1="220.5" x2="196.5" y2="180.5"/>
<line class="st4" x1="221" y1="224.5" x2="220.5" y2="184.5"/>
<line class="st4" x1="246.7" y1="193.8" x2="234.1" y2="227.6"/>
</svg>
