<?xml version="1.0" encoding="utf-8"?>
<!-- Generator: Adobe Illustrator 24.2.0, SVG Export Plug-In . SVG Version: 6.00 Build 0)  -->
<svg version="1.1" id="Layer_1" xmlns="http://www.w3.org/2000/svg" xmlns:xlink="http://www.w3.org/1999/xlink" x="0px" y="0px"
	 viewBox="0 0 384 306.2" style="enable-background:new 0 0 384 306.2;" xml:space="preserve">
<style type="text/css">
	.st0{fill:none;stroke:#000000;stroke-width:15;stroke-miterlimit:10;}
	.st1{fill:none;}
	.st2{fill:#D40011;stroke:#000000;stroke-width:15;stroke-miterlimit:10;}
	.st3{fill:#FFFFFF;stroke:#000000;stroke-width:10;stroke-miterlimit:10;}
	.st4{fill:none;stroke:#000000;stroke-width:11;stroke-miterlimit:10;}
</style>
<polygon class="st0" points="192,21.1 269.9,156.1 347.8,291 192,291 36.2,291 114.1,156.1 "/>
<g>
	<ellipse class="st1" cx="181.7" cy="210.2" rx="9.9" ry="10.6"/>
	<path d="M191.6,190.1c-13.4,0-24.3,11.6-24.3,25.9s10.9,25.9,24.3,25.9s24.3-11.6,24.3-25.9S205.1,190.1,191.6,190.1z M181.7,220.8
		c-5.5,0-9.9-4.7-9.9-10.6c0-5.8,4.4-10.6,9.9-10.6s9.9,4.7,9.9,10.6C191.6,216.1,187.2,220.8,181.7,220.8z"/>
	<path class="st2" d="M292.1,216c-25.6-28.9-62-47-102.3-47s-76.7,18.1-102.3,47h0.4c25.6,28.9,62,47,102.3,47s76.7-18.1,102.3-47
		H292.1z M191.2,257.2c-21.7,0-39.2-18.7-39.2-41.7s17.6-41.7,39.2-41.7s39.2,18.7,39.2,41.7C230.4,238.6,212.8,257.2,191.2,257.2z"
		/>
	<path class="st3" d="M191.2,173.8c-21.7,0-39.2,18.7-39.2,41.7s17.6,41.7,39.2,41.7s39.2-18.7,39.2-41.7S212.8,173.8,191.2,173.8z
		 M191.6,241.9c-13.4,0-24.3-11.6-24.3-25.9s10.9-25.9,24.3-25.9s24.3,11.6,24.3,25.9S205.1,241.9,191.6,241.9z"/>
</g>
<line class="st4" x1="170" y1="166.5" x2="169.5" y2="126.5"/>
<line class="st4" x1="155.2" y1="166.3" x2="143" y2="132.4"/>
<line class="st4" x1="194" y1="161.5" x2="193.5" y2="121.5"/>
<line class="st4" x1="218" y1="165.5" x2="217.5" y2="125.5"/>
<line class="st4" x1="243.7" y1="134.8" x2="231.1" y2="168.6"/>
</svg>
